#!OML:ASF Y:\EmotionMaleHayes\Project 1\Capture day 1\Session 1\Male1.ASF
:FULLY-SPECIFIED
:DEGREES
949
root 43.0187 16.1989 -8.10941 -362.575 20.4328 -353.044
lowerback 8.93047 4.00031 -3.2737
upperback 3.14183 4.99826 -2.90173
thorax -1.74617 2.50898 -1.68327
lowerneck -17.7387 -8.38864 -7.10551
upperneck 30.0174 -13.4016 10.5842
head 14.6095 -5.13812 3.06442
rclavicle 3.02277e-014 2.52457e-014
rhumerus -23.1439 8.24792 -88.3081
rradius 42.78
rwrist -0.216988
rhand -17.6912 -31.6179
rfingers 7.12502
rthumb 8.56834 -61.424
lclavicle 3.02277e-014 2.52457e-014
lhumerus -38.4808 4.58501 77.1757
lradius 19.5706
lwrist -34.4753
lhand -1.76686 -23.5973
lfingers 7.12502
lthumb 23.897 4.93586
rfemur 22.6363 8.92618 33.2106
rtibia 13.5304
rfoot -20.3587 16.1196
rtoes 36.6784
lfemur -14.061 -3.09443 -17.8007
ltibia 25.4467
lfoot -7.75306 -0.649472
ltoes -14.8831
950
root 43.1101 16.2142 -7.98939 -362.37 19.9253 -351.836
lowerback 9.13769 3.9712 -4.64634
upperback 3.19882 4.82383 -3.18545
thorax -1.88499 2.41956 -1.21528
lowerneck -17.8271 -8.32939 -6.94271
upperneck 30.1366 -13.3068 10.3624
head 14.6346 -5.10353 2.96467
rclavicle -3.90612e-014 -2.88238e-014
rhumerus -23.9645 8.04072 -88.5381
rradius 42.2236
rwrist -0.275724
rhand -17.2206 -32.2313
rfingers 7.12502
rthumb 9.02244 -62.0183
lclavicle -3.90612e-014 -2.88238e-014
lhumerus -37.7759 4.47313 76.9521
lradius 19.9568
lwrist -33.832
lhand -2.83423 -23.323
lfingers 7.12502
lthumb 22.873 5.34055
rfemur 22.6363 8.92618 33.2106
rtibia 13.5304
rfoot -20.3587 16.1196
rtoes 36.6784
lfemur -13.1268 -3.01324 -19.3389
ltibia 25.4128
lfoot -8.20639 -0.226424
ltoes -14.8907
951
root 43.2317 16.2295 -7.87263 -362.297 19.4544 -350.9
lowerback 9.28009 3.83666 -5.38361
upperback 3.28728 4.5691 -3.45369
thorax -1.89937 2.29148 -1.06467
lowerneck -17.9138 -8.27849 -6.52423
upperneck 30.1267 -13.1939 9.85575
head 14.5487 -5.07548 2.70545
rclavicle 2.60408e-014 1.98785e-014
rhumerus -24.2444 7.20016 -88.6766
rradius 41.0049
rwrist 0.462223
rhand -15.927 -32.4274
rfingers 7.12502
rthumb 10.2706 -62.1567
lclavicle 2.60408e-014 1.98785e-014
lhumerus -37.0923 3.83122 76.9982
lradius 20.3983
lwrist -32.3023
lhand -4.66758 -22.6691
lfingers 7.12502
lthumb 21.1128 6.20137
rfemur 22.6363 8.92618 33.2106
rtibia 13.5304
rfoot -20.3587 16.1196
rtoes 36.6784
lfemur -12.0066 -3.01049 -20.8323
ltibia 25.1971
lfoot -8.74396 0.0856672
ltoes -14.5033
952
root 43.319 16.2479 -7.76385 -362.16 18.8431 -350.105
lowerback 9.51752 3.78103 -6.33372
upperback 3.27122 4.38194 -3.61471
thorax -2.09579 2.1989 -0.705578
lowerneck -18.063 -8.16349 -6.70244
upperneck 30.2524 -12.9922 9.88993
head 14.6336 -4.99819 2.78711
rclavicle -4.56956e-014 2.5842e-014
rhumerus -24.8647 7.57916 -88.8812
rradius 40.1734
rwrist -0.00392748
rhand -15.7003 -33.5902
rfingers 7.12502
rthumb 10.4893 -63.3085
lclavicle -4.56956e-014 2.5842e-014
lhumerus -36.4186 3.27226 76.9779
lradius 20.7952
lwrist -30.6998
lhand -6.0254 -22.7135
lfingers 7.12502
lthumb 19.8079 6.29719
rfemur 22.6363 8.92618 33.2106
rtibia 13.5304
rfoot -20.3587 16.1196
rtoes 36.6784
lfemur -11.2485 -2.78098 -21.8931
ltibia 25.1466
lfoot -9.33182 0.479297
ltoes -14.7932
953
root 43.4007 16.2664 -7.64996 -362.009 17.9634 -349.236
lowerback 9.65652 4.12932 -7.10794
upperback 3.30495 4.7562 -3.75025
thorax -2.19622 2.38506 -0.478405
lowerneck -18.005 -8.43544 -7.86151
upperneck 30.2265 -13.2275 10.4925
head 14.7954 -5.15553 3.18264
rclavicle 6.3375e-014 1.77912e-014
rhumerus -25.6221 7.2283 -88.5371
rradius 39.6108
rwrist -0.679814
rhand -15.9358 -34.6872
rfingers 7.12502
rthumb 10.2621 -64.4169
lclavicle 6.3375e-014 1.77912e-014
lhumerus -35.4603 2.21949 77.4596
lradius 21.094
lwrist -29.3237
lhand -6.99506 -22.962
lfingers 7.12502
lthumb 18.8756 6.14219
rfemur 22.6363 8.92618 33.2106
rtibia 13.5304
rfoot -20.3587 16.1196
rtoes 36.6784
lfemur -10.3573 -2.35733 -22.9703
ltibia 24.8927
lfoot -9.94117 0.903554
ltoes -14.0599
954
root 43.4828 16.2862 -7.53696 -361.895 17.1073 -348.676
lowerback 9.33468 4.04328 -7.9791
upperback 3.54401 4.61403 -3.80981
thorax -1.81971 2.29857 -0.0122406
lowerneck -18.289 -8.27004 -7.687
upperneck 30.0544 -12.9455 10.3107
head 14.7116 -5.03794 3.1207
rclavicle 1.06847e-015 5.1684e-015
rhumerus -25.855 7.52175 -88.7067
rradius 39.0261
rwrist -0.601641
rhand -15.4041 -34.6941
rfingers 7.12502
rthumb 10.775 -64.3977
lclavicle 1.06847e-015 5.1684e-015
lhumerus -34.4907 2.42424 77.2407
lradius 21.5115
lwrist -28.0117
lhand -8.12565 -22.9933
lfingers 7.12502
lthumb 17.7879 6.21312
rfemur 22.6363 8.92618 33.2106
rtibia 13.5304
rfoot -20.3587 16.1196
rtoes 36.6784
lfemur -9.54974 -1.93085 -23.6957
ltibia 24.6121
lfoot -10.5225 1.18458
ltoes -11.982
955
root 43.5636 16.3082 -7.42519 -361.748 16.4541 -348.165
lowerback 9.18215 3.82161 -8.80036
upperback 3.61309 4.26889 -3.89221
thorax -1.68932 2.1172 0.405407
lowerneck -18.4439 -7.96993 -7.51401
upperneck 29.9807 -12.519 10.2334
head 14.6382 -4.84717 3.13912
rclavicle -2.18787e-014 -2.27608e-014
rhumerus -25.2841 5.56519 -88.7
rradius 36.5968
rwrist 2.01314
rhand -15.1482 -33.9517
rfingers 7.12502
rthumb 11.0218 -63.6423
lclavicle -2.18787e-014 -2.27608e-014
lhumerus -33.8062 2.97183 76.7239
lradius 21.9616
lwrist -26.9606
lhand -9.18769 -23.0524
lfingers 7.12502
lthumb 16.7658 6.24366
rfemur 22.6363 8.92618 33.2106
rtibia 13.5304
rfoot -20.3587 16.1196
rtoes 36.6784
lfemur -8.84081 -1.7155 -24.4302
ltibia 24.3473
lfoot -11.0455 1.54359
ltoes -11.3985
